<?xml version="1.0" standalone="no"?>
<!DOCTYPE svg PUBLIC "-//W3C//DTD SVG 20010904//EN"
 "http://www.w3.org/TR/2001/REC-SVG-20010904/DTD/svg10.dtd">
<svg version="1.0" xmlns="http://www.w3.org/2000/svg"
 width="349.000000pt" height="290.000000pt" viewBox="0 0 349.000000 290.000000"
 preserveAspectRatio="xMidYMid meet">

<g transform="translate(0.000000,290.000000) scale(0.100000,-0.100000)"
fill="#000000" stroke="none">
<path d="M1525 2644 c-95 -16 -232 -62 -330 -111 -328 -166 -557 -477 -621
-844 -21 -124 -14 -338 15 -457 132 -529 595 -892 1137 -892 633 0 1154 524
1154 1160 0 371 -183 730 -480 939 -147 104 -355 189 -513 210 -103 14 -262
12 -362 -5z m355 -28 c365 -56 683 -284 848 -612 37 -73 86 -220 103 -305 16
-83 16 -315 0 -398 -79 -402 -360 -731 -734 -861 -303 -105 -618 -83 -897 61
-545 282 -763 960 -485 1509 133 262 370 464 655 560 172 57 336 72 510 46z"/>
<path d="M1670 2520 c0 -5 14 -10 30 -10 l30 0 0 -90 c0 -73 3 -90 15 -90 12
0 15 15 15 79 0 86 12 108 51 96 15 -5 20 -3 17 6 -6 17 -158 26 -158 9z"/>
<path d="M1515 2501 c-7 -13 -35 -155 -35 -182 0 -30 20 -22 26 11 4 16 14 31
23 34 62 16 68 16 81 -9 12 -23 41 -35 40 -17 -1 4 -22 43 -49 87 -45 76 -71
99 -86 76z m48 -56 c23 -49 22 -55 -13 -55 -26 0 -30 3 -30 29 0 33 9 61 19
61 4 0 15 -16 24 -35z"/>
<path d="M1871 2433 c-7 -43 -15 -86 -18 -96 -4 -14 0 -18 13 -15 14 2 21 19
30 78 16 99 16 110 0 110 -9 0 -17 -25 -25 -77z"/>
<path d="M1972 2399 c3 -98 4 -104 24 -104 15 0 39 23 78 72 60 77 63 83 42
83 -8 0 -34 -28 -58 -62 -24 -35 -47 -62 -52 -60 -5 1 -9 39 -10 84 -1 58 -5
83 -14 86 -11 3 -13 -16 -10 -99z"/>
<path d="M1280 2429 c-24 -11 -46 -21 -47 -23 -8 -8 72 -176 81 -173 11 4 11
12 0 59 -5 23 -2 28 20 34 20 5 36 0 63 -19 20 -14 42 -23 51 -19 13 5 13 7
-4 18 -58 39 -59 40 -46 69 11 23 10 31 -3 51 -19 29 -53 30 -115 3z m94 -22
c9 -15 6 -23 -17 -43 -34 -29 -63 -31 -77 -5 -16 31 -12 41 23 56 39 18 56 16
71 -8z"/>
<path d="M2146 2340 c-25 -43 -46 -81 -46 -84 0 -5 125 -76 134 -76 20 0 -1
21 -44 44 -53 29 -59 40 -36 71 13 18 15 17 59 -8 60 -33 71 -17 12 17 -50 30
-52 33 -30 62 14 19 15 19 65 -7 61 -33 77 -21 18 14 -93 53 -81 56 -132 -33z"/>
<path d="M1104 2330 c-28 -11 -64 -58 -64 -82 0 -28 26 -74 52 -92 60 -42 148
5 148 79 0 29 -8 45 -34 71 -34 34 -61 41 -102 24z m85 -46 c40 -51 17 -124
-40 -124 -54 0 -99 92 -64 130 27 30 79 26 104 -6z"/>
<path d="M1550 2224 c-83 -17 -230 -90 -296 -146 -106 -90 -177 -194 -219
-320 -70 -207 -40 -446 76 -625 61 -94 175 -195 273 -243 118 -58 190 -74 326
-74 136 0 208 16 330 75 70 34 101 58 176 134 75 74 99 107 132 176 54 111 75
201 75 324 0 165 -45 303 -142 434 -93 125 -262 233 -416 266 -86 18 -229 18
-315 -1z m304 -19 c158 -33 325 -144 420 -279 61 -86 83 -134 106 -228 52
-219 3 -443 -133 -609 -140 -169 -318 -251 -542 -251 -223 1 -402 89 -544 269
-178 224 -189 558 -27 801 95 143 264 260 426 296 86 19 209 19 294 1z"/>
<path d="M1347 1879 c-119 -12 -143 -24 -140 -71 2 -39 54 -181 76 -212 19
-26 47 -14 104 42 55 56 90 128 95 197 4 59 6 58 -135 44z m46 -120 c15 -24 1
-49 -27 -49 -29 0 -44 33 -25 56 15 18 38 15 52 -7z"/>
<path d="M1553 1813 c-20 -116 -88 -218 -186 -280 l-38 -24 30 -37 c109 -137
230 -191 451 -201 l134 -6 29 -100 c29 -101 49 -137 66 -120 5 6 19 63 31 127
l22 117 71 50 c117 81 134 98 120 112 -11 10 -34 10 -120 -4 -60 -10 -113 -17
-119 -17 -6 0 -22 28 -35 61 -30 82 -104 193 -166 251 -58 53 -144 100 -224
121 l-55 14 -11 -64z"/>
<path d="M2380 2175 c-44 -44 -61 -68 -54 -75 7 -7 18 -2 34 15 l24 25 38 -37
c46 -45 64 -36 20 10 -38 39 -39 44 -10 74 l22 23 38 -37 c53 -52 61 -32 8 22
-24 25 -47 45 -50 45 -3 0 -35 -29 -70 -65z"/>
<path d="M944 2180 c-32 -13 -64 -59 -64 -92 0 -45 57 -98 105 -98 48 0 95 44
95 89 0 20 -5 31 -14 31 -8 0 -12 -8 -9 -23 6 -28 -23 -64 -58 -72 -20 -5 -33
1 -57 23 -50 47 -38 112 22 123 11 2 19 8 19 14 -2 13 -14 15 -39 5z"/>
<path d="M2505 2045 c-71 -55 -88 -75 -63 -75 23 0 155 104 151 118 -7 18 -12
16 -88 -43z"/>
<path d="M782 1967 c-17 -31 -33 -61 -34 -67 -2 -5 34 -30 79 -55 l82 -45 36
64 c38 68 40 76 25 76 -5 0 -21 -22 -35 -50 -14 -27 -29 -50 -33 -50 -4 0 -18
7 -30 16 l-22 15 25 50 c31 61 15 65 -20 5 -24 -42 -28 -44 -51 -34 -29 14
-29 18 -3 69 32 64 16 69 -19 6z"/>
<path d="M2590 1990 c-15 -15 -18 -27 -13 -52 14 -65 10 -93 -14 -96 -28 -4
-55 36 -51 74 2 15 -2 29 -9 31 -21 7 -15 -56 7 -93 26 -41 53 -51 87 -29 21
14 24 22 18 48 -18 86 -18 97 -1 103 26 10 58 -25 54 -60 -2 -17 2 -31 10 -33
34 -12 0 97 -37 117 -26 13 -28 13 -51 -10z"/>
<path d="M2700 1810 c-14 -5 -51 -16 -82 -25 -38 -11 -58 -22 -58 -31 0 -10 6
-13 18 -10 68 20 70 20 81 -21 16 -56 15 -59 -29 -72 -22 -7 -38 -16 -35 -21
9 -14 18 -13 107 11 50 14 78 26 78 35 0 17 -5 17 -48 5 -35 -11 -39 -6 -56
61 -6 25 -3 28 34 39 22 7 39 17 37 23 -5 14 -18 16 -47 6z"/>
<path d="M713 1778 c-21 -22 -49 -105 -40 -115 3 -2 43 -15 90 -28 l86 -23 11
34 c32 95 -1 154 -84 154 -31 0 -48 -6 -63 -22z m115 -24 c15 -10 22 -25 22
-47 0 -58 -10 -63 -84 -43 -56 15 -66 22 -66 40 0 12 7 32 16 44 18 27 78 30
112 6z"/>
<path d="M883 1355 c0 -22 2 -30 4 -17 2 12 2 30 0 40 -3 9 -5 -1 -4 -23z"/>
<path d="M2515 1330 c-3 -5 -1 -10 4 -10 6 0 11 5 11 10 0 6 -2 10 -4 10 -3 0
-8 -4 -11 -10z"/>
<path d="M2027 768 c-56 -24 -56 -25 -6 -131 17 -37 37 -67 45 -67 16 0 19 26
4 35 -17 11 -11 43 9 50 64 20 92 83 53 118 -24 22 -47 21 -105 -5z m87 -24
c12 -30 6 -44 -25 -59 -38 -20 -54 -15 -63 21 -6 21 -3 32 10 41 25 18 71 16
78 -3z"/>
<path d="M1384 726 c-20 -31 -10 -50 42 -86 28 -18 39 -33 39 -50 0 -22 -4
-25 -35 -23 -21 1 -41 9 -51 22 -18 22 -39 28 -39 11 0 -37 114 -76 145 -50
24 20 19 67 -11 87 -70 49 -79 60 -65 77 18 22 47 20 71 -4 11 -11 27 -20 35
-20 30 0 -4 39 -43 50 -55 15 -70 13 -88 -14z"/>
<path d="M1843 719 c-38 -11 -73 -52 -73 -86 0 -36 26 -90 48 -102 53 -28 132
1 153 56 15 40 -6 100 -44 123 -35 22 -38 22 -84 9z m77 -41 c13 -14 20 -35
20 -60 0 -90 -102 -109 -130 -24 -13 40 -5 82 19 96 28 16 69 11 91 -12z"/>
<path d="M1566 658 c-11 -94 -8 -148 9 -148 11 0 15 12 15 46 l0 45 53 -3 52
-3 1 -45 c0 -32 5 -45 15 -45 11 0 15 22 17 104 3 83 1 102 -10 99 -7 -3 -15
-22 -18 -44 -5 -38 -6 -39 -49 -42 -51 -4 -62 7 -54 55 4 25 2 33 -9 33 -11 0
-17 -15 -22 -52z"/>
</g>
</svg>
